<svg width="31" height="31" viewBox="0 0 31 31" fill="none" xmlns="http://www.w3.org/2000/svg">
<path d="M15.5 27.8296C22.3396 27.8296 27.8842 22.2849 27.8842 15.4453C27.8842 8.60566 22.3396 3.06104 15.5 3.06104C8.66034 3.06104 3.11572 8.60566 3.11572 15.4453C3.11572 22.2849 8.66034 27.8296 15.5 27.8296Z" stroke="white" stroke-width="2.08056" stroke-linecap="round" stroke-linejoin="round"/>
<path d="M12.4039 11.6871C12.4039 11.096 12.4039 10.8005 12.5274 10.6355C12.6351 10.4917 12.7999 10.4017 12.979 10.3889C13.1846 10.3742 13.4332 10.5341 13.9304 10.8537L19.7765 14.6119C20.208 14.8893 20.4237 15.0279 20.4982 15.2043C20.5633 15.3584 20.5633 15.5322 20.4982 15.6863C20.4237 15.8626 20.208 16.0013 19.7765 16.2787L13.9304 20.0369C13.4332 20.3565 13.1846 20.5163 12.979 20.5017C12.7999 20.4889 12.6351 20.3989 12.5274 20.2551C12.4039 20.0901 12.4039 19.7946 12.4039 19.2035V11.6871Z" stroke="white" stroke-width="2.08056" stroke-linecap="round" stroke-linejoin="round"/>
</svg>
