<svg width="26" height="26" viewBox="0 0 26 26" fill="none" xmlns="http://www.w3.org/2000/svg">
<path d="M9.49967 9.49992H9.51134M16.4997 16.4999H16.5113M17.6663 8.33325L8.33301 17.6666M9.73522 23.0343C10.1176 22.9837 10.5039 23.0874 10.8085 23.322L12.2122 24.3992C12.6763 24.7557 13.3218 24.7557 13.7845 24.3992L15.2414 23.2806C15.5136 23.0719 15.8571 22.9798 16.1967 23.0252L18.0192 23.265C18.5986 23.3415 19.1572 23.0187 19.3815 22.4782L20.0827 20.7827C20.2136 20.4651 20.4651 20.2136 20.7826 20.0827L22.4781 19.3814C23.0186 19.1585 23.3413 18.5985 23.2648 18.019L23.0341 16.2626C22.9836 15.8802 23.0873 15.4939 23.3219 15.1893L24.399 13.7855C24.7555 13.3214 24.7555 12.6759 24.399 12.2131L23.2804 10.7561C23.0717 10.4839 22.9797 10.1404 23.025 9.80075L23.2648 7.97821C23.3413 7.39878 23.0186 6.84009 22.4781 6.61584L20.7826 5.91456C20.4651 5.78364 20.2136 5.53216 20.0827 5.21458L19.3815 3.51907C19.1585 2.97853 18.5986 2.65576 18.0192 2.73224L16.1967 2.97205C15.8571 3.01871 15.5136 2.92668 15.2427 2.71928L13.7858 1.60061C13.3218 1.24413 12.6763 1.24413 12.2135 1.60061L10.7566 2.71928C10.4844 2.92668 10.1409 3.01871 9.80133 2.97464L7.97889 2.73483C7.39949 2.65835 6.84084 2.98112 6.6166 3.52166L5.91665 5.21717C5.78444 5.53346 5.53298 5.78493 5.21671 5.91715L3.5213 6.61713C2.98079 6.84139 2.65804 7.40007 2.73451 7.9795L2.97431 9.80204C3.01838 10.1417 2.92635 10.4852 2.71896 10.7561L1.60035 12.2131C1.24389 12.6771 1.24389 13.3227 1.60035 13.7855L2.71896 15.2424C2.92764 15.5147 3.01967 15.8582 2.97431 16.1978L2.73451 18.0203C2.65804 18.5998 2.98079 19.1585 3.5213 19.3827L5.21671 20.084C5.53428 20.2149 5.78574 20.4664 5.91665 20.784L6.61789 22.4795C6.84084 23.02 7.40079 23.3428 7.98019 23.2663L9.73522 23.0343ZM10.083 9.49992C10.083 9.82208 9.82184 10.0833 9.49967 10.0833C9.17751 10.0833 8.91634 9.82208 8.91634 9.49992C8.91634 9.17775 9.17751 8.91659 9.49967 8.91659C9.82184 8.91659 10.083 9.17775 10.083 9.49992ZM17.083 16.4999C17.083 16.8221 16.8218 17.0833 16.4997 17.0833C16.1775 17.0833 15.9163 16.8221 15.9163 16.4999C15.9163 16.1778 16.1775 15.9166 16.4997 15.9166C16.8218 15.9166 17.083 16.1778 17.083 16.4999Z" stroke="#00802F" stroke-width="1.4" stroke-linecap="round" stroke-linejoin="round"/>
</svg>
