<svg width="375" height="30" viewBox="0 0 375 30" fill="none" xmlns="http://www.w3.org/2000/svg">
<path d="M126.826 25.0544C128.874 26.1293 129.898 26.6667 131 26.6667V15L120.078 9.25146C120.062 9.27732 120.046 9.3034 120.03 9.32976C119.333 10.5133 119.333 11.9862 119.333 14.9318V15.0683C119.333 18.0139 119.333 19.4868 120.03 20.6704C120.727 21.854 121.982 22.5127 124.493 23.83L126.826 25.0544Z" fill="#009A49"/>
<path opacity="0.7" d="M137.507 6.17027L135.174 4.94579C133.126 3.87093 132.101 3.3335 131 3.3335C129.898 3.3335 128.874 3.87093 126.826 4.94579L124.492 6.17027C122.038 7.45827 120.783 8.11662 120.077 9.25158L131 15.0002L141.922 9.25158C141.216 8.11662 139.961 7.45827 137.507 6.17027Z" fill="#009A49"/>
<path opacity="0.5" d="M141.97 9.32976C141.954 9.3034 141.938 9.27732 141.922 9.25146L131 15V26.6667C132.102 26.6667 133.126 26.1293 135.174 25.0544L137.507 23.83C140.018 22.5127 141.273 21.854 141.97 20.6704C142.667 19.4868 142.667 18.0139 142.667 15.0683V14.9318C142.667 11.9862 142.667 10.5133 141.97 9.32976Z" fill="#009A49"/>
<path d="M164.247 10.968L161.655 11.784C161.543 11.128 161.215 10.528 160.671 9.984C160.127 9.44 159.343 9.168 158.319 9.168C157.471 9.168 156.767 9.408 156.207 9.888C155.663 10.368 155.391 10.944 155.391 11.616C155.391 12.784 156.055 13.512 157.383 13.8L159.831 14.304C161.303 14.592 162.439 15.176 163.239 16.056C164.039 16.936 164.439 17.984 164.439 19.2C164.439 20.608 163.895 21.824 162.807 22.848C161.735 23.856 160.271 24.36 158.415 24.36C156.415 24.36 154.855 23.84 153.735 22.8C152.615 21.744 151.983 20.52 151.839 19.128L154.527 18.36C154.623 19.32 155.007 20.128 155.679 20.784C156.351 21.44 157.263 21.768 158.415 21.768C159.407 21.768 160.167 21.552 160.695 21.12C161.239 20.672 161.511 20.104 161.511 19.416C161.511 18.856 161.311 18.376 160.911 17.976C160.511 17.56 159.951 17.272 159.231 17.112L156.831 16.608C155.503 16.336 154.447 15.784 153.663 14.952C152.895 14.12 152.511 13.08 152.511 11.832C152.511 10.408 153.079 9.184 154.215 8.16C155.351 7.136 156.711 6.624 158.295 6.624C160.103 6.624 161.487 7.064 162.447 7.944C163.407 8.808 164.007 9.816 164.247 10.968ZM169.857 17.136V24H167.073V6.624H169.857V13.44C170.609 12.464 171.721 11.976 173.193 11.976C174.569 11.976 175.625 12.408 176.361 13.272C177.097 14.136 177.465 15.248 177.465 16.608V24H174.681V17.088C174.681 16.304 174.489 15.68 174.105 15.216C173.721 14.736 173.113 14.496 172.281 14.496C171.545 14.496 170.961 14.744 170.529 15.24C170.113 15.736 169.889 16.368 169.857 17.136ZM183.663 20.88C184.303 21.536 185.079 21.864 185.991 21.864C186.903 21.864 187.671 21.536 188.295 20.88C188.935 20.224 189.255 19.312 189.255 18.144C189.255 16.992 188.935 16.096 188.295 15.456C187.671 14.8 186.903 14.472 185.991 14.472C185.079 14.472 184.303 14.8 183.663 15.456C183.039 16.096 182.727 16.992 182.727 18.144C182.727 19.296 183.039 20.208 183.663 20.88ZM185.991 11.952C187.751 11.952 189.199 12.536 190.335 13.704C191.487 14.872 192.063 16.352 192.063 18.144C192.063 19.936 191.487 21.424 190.335 22.608C189.199 23.776 187.751 24.36 185.991 24.36C184.247 24.36 182.799 23.776 181.647 22.608C180.511 21.424 179.943 19.936 179.943 18.144C179.943 16.352 180.511 14.872 181.647 13.704C182.799 12.536 184.247 11.952 185.991 11.952ZM197.513 28.56H194.753V12.312H197.441V13.896C197.745 13.368 198.225 12.928 198.881 12.576C199.537 12.224 200.297 12.048 201.161 12.048C202.841 12.048 204.161 12.624 205.121 13.776C206.081 14.912 206.561 16.368 206.561 18.144C206.561 19.92 206.057 21.392 205.049 22.56C204.041 23.712 202.713 24.288 201.065 24.288C200.265 24.288 199.553 24.136 198.929 23.832C198.305 23.528 197.833 23.144 197.513 22.68V28.56ZM203.777 18.144C203.777 17.056 203.489 16.184 202.913 15.528C202.337 14.856 201.577 14.52 200.633 14.52C199.705 14.52 198.945 14.856 198.353 15.528C197.777 16.184 197.489 17.056 197.489 18.144C197.489 19.248 197.777 20.136 198.353 20.808C198.945 21.48 199.705 21.816 200.633 21.816C201.561 21.816 202.313 21.48 202.889 20.808C203.481 20.136 203.777 19.248 203.777 18.144ZM212.358 21.36H215.382C216.95 21.36 218.238 20.864 219.246 19.872C220.27 18.864 220.782 17.416 220.782 15.528C220.782 13.624 220.278 12.168 219.27 11.16C218.262 10.136 216.974 9.624 215.406 9.624H212.358V21.36ZM215.478 24H209.478V6.984H215.502C217.902 6.984 219.878 7.744 221.43 9.264C222.998 10.784 223.782 12.872 223.782 15.528C223.782 18.168 222.998 20.24 221.43 21.744C219.862 23.248 217.878 24 215.478 24ZM228.549 16.872H234.285C234.253 16.136 233.989 15.52 233.493 15.024C233.013 14.528 232.317 14.28 231.405 14.28C230.573 14.28 229.901 14.544 229.389 15.072C228.877 15.584 228.597 16.184 228.549 16.872ZM234.597 19.92L236.949 20.664C236.613 21.736 235.981 22.624 235.053 23.328C234.141 24.016 233.013 24.36 231.669 24.36C230.005 24.36 228.589 23.792 227.421 22.656C226.269 21.52 225.693 20 225.693 18.096C225.693 16.304 226.253 14.832 227.373 13.68C228.509 12.528 229.845 11.952 231.381 11.952C233.173 11.952 234.573 12.504 235.581 13.608C236.589 14.696 237.093 16.168 237.093 18.024C237.093 18.52 237.069 18.816 237.021 18.912H228.477C228.509 19.792 228.829 20.52 229.437 21.096C230.061 21.672 230.805 21.96 231.669 21.96C233.173 21.96 234.149 21.28 234.597 19.92ZM238.721 20.832L241.145 20.16C241.193 20.72 241.425 21.192 241.841 21.576C242.257 21.96 242.817 22.152 243.521 22.152C244.065 22.152 244.489 22.024 244.793 21.768C245.113 21.512 245.273 21.192 245.273 20.808C245.273 20.136 244.817 19.704 243.905 19.512L242.177 19.128C241.169 18.904 240.393 18.488 239.849 17.88C239.305 17.272 239.033 16.552 239.033 15.72C239.033 14.696 239.449 13.816 240.281 13.08C241.113 12.328 242.129 11.952 243.329 11.952C244.097 11.952 244.777 12.064 245.369 12.288C245.961 12.512 246.417 12.808 246.737 13.176C247.073 13.528 247.329 13.872 247.505 14.208C247.681 14.544 247.793 14.88 247.841 15.216L245.489 15.888C245.425 15.44 245.217 15.04 244.865 14.688C244.529 14.32 244.017 14.136 243.329 14.136C242.849 14.136 242.449 14.272 242.129 14.544C241.809 14.8 241.649 15.112 241.649 15.48C241.649 16.136 242.041 16.544 242.825 16.704L244.601 17.064C245.689 17.304 246.521 17.736 247.097 18.36C247.673 18.984 247.961 19.736 247.961 20.616C247.961 21.592 247.569 22.464 246.785 23.232C246.017 23.984 244.937 24.36 243.545 24.36C242.745 24.36 242.025 24.24 241.385 24C240.761 23.76 240.265 23.456 239.897 23.088C239.545 22.704 239.265 22.328 239.057 21.96C238.865 21.576 238.753 21.2 238.721 20.832ZM261.666 12.312L256.866 17.256L261.762 24H258.354L254.922 19.224L253.482 20.736V24H250.722V6.624H253.482V17.04L257.97 12.312H261.666Z" fill="#090F1C"/>
</svg>
