<svg width="20" height="20" viewBox="0 0 20 20" fill="none" xmlns="http://www.w3.org/2000/svg">
<path d="M7.50002 7.49996H7.50835M12.5 12.5H12.5084M13.3334 6.66663L6.66669 13.3333M6.11149 3.18221C6.78136 3.12875 7.41728 2.86534 7.92874 2.42948C9.12229 1.41234 10.8778 1.41234 12.0713 2.42948C12.5828 2.86534 13.2187 3.12875 13.8885 3.18221C15.4517 3.30695 16.693 4.54825 16.8178 6.11143C16.8712 6.78129 17.1346 7.41722 17.5705 7.92868C18.5876 9.12223 18.5876 10.8777 17.5705 12.0712C17.1346 12.5827 16.8712 13.2186 16.8178 13.8885C16.693 15.4517 15.4517 16.693 13.8885 16.8177C13.2187 16.8712 12.5828 17.1346 12.0713 17.5704C10.8778 18.5876 9.12229 18.5876 7.92874 17.5704C7.41728 17.1346 6.78136 16.8712 6.11149 16.8177C4.54831 16.693 3.30701 15.4517 3.18227 13.8885C3.12881 13.2186 2.8654 12.5827 2.42954 12.0712C1.4124 10.8777 1.4124 9.12223 2.42954 7.92868C2.8654 7.41722 3.12881 6.78129 3.18227 6.11143C3.30701 4.54825 4.54831 3.30695 6.11149 3.18221ZM7.91669 7.49996C7.91669 7.73008 7.73014 7.91663 7.50002 7.91663C7.2699 7.91663 7.08335 7.73008 7.08335 7.49996C7.08335 7.26984 7.2699 7.08329 7.50002 7.08329C7.73014 7.08329 7.91669 7.26984 7.91669 7.49996ZM12.9167 12.5C12.9167 12.7301 12.7301 12.9166 12.5 12.9166C12.2699 12.9166 12.0834 12.7301 12.0834 12.5C12.0834 12.2698 12.2699 12.0833 12.5 12.0833C12.7301 12.0833 12.9167 12.2698 12.9167 12.5Z" stroke="#1B1B1B" stroke-width="1.4" stroke-linecap="round" stroke-linejoin="round"/>
</svg>
