<svg width="21" height="20" viewBox="0 0 21 20" fill="none" xmlns="http://www.w3.org/2000/svg">
<path d="M7.5 10H3.1C2.53995 10 2.25992 10 2.04601 10.109C1.85785 10.2049 1.70487 10.3578 1.60899 10.546C1.5 10.7599 1.5 11.0399 1.5 11.6V17.4C1.5 17.9601 1.5 18.2401 1.60899 18.454C1.70487 18.6422 1.85785 18.7951 2.04601 18.891C2.25992 19 2.53995 19 3.1 19H7.5M7.5 19H13.5M7.5 19L7.5 6.6C7.5 6.03995 7.5 5.75992 7.60899 5.54601C7.70487 5.35785 7.85785 5.20487 8.04601 5.10899C8.25992 5 8.53995 5 9.1 5H11.9C12.4601 5 12.7401 5 12.954 5.10899C13.1422 5.20487 13.2951 5.35785 13.391 5.54601C13.5 5.75992 13.5 6.03995 13.5 6.6V19M13.5 19H17.9C18.4601 19 18.7401 19 18.954 18.891C19.1422 18.7951 19.2951 18.6422 19.391 18.454C19.5 18.2401 19.5 17.9601 19.5 17.4V2.6C19.5 2.03995 19.5 1.75992 19.391 1.54601C19.2951 1.35785 19.1422 1.20487 18.954 1.10899C18.7401 1 18.4601 1 17.9 1H15.1C14.5399 1 14.2599 1 14.046 1.10899C13.8578 1.20487 13.7049 1.35785 13.609 1.54601C13.5 1.75992 13.5 2.03995 13.5 2.6V6" stroke="#009A49" stroke-width="1.4" stroke-linecap="round" stroke-linejoin="round"/>
</svg>
