<svg width="20" height="14" viewBox="0 0 20 14" fill="none" xmlns="http://www.w3.org/2000/svg">
<path d="M4.99999 5.33329V8.66663M15 5.33329V8.66663M1.66666 3.83329L1.66666 10.1666C1.66666 11.1 1.66666 11.5668 1.84831 11.9233C2.0081 12.2369 2.26307 12.4918 2.57667 12.6516C2.93319 12.8333 3.3999 12.8333 4.33332 12.8333L15.6667 12.8333C16.6001 12.8333 17.0668 12.8333 17.4233 12.6516C17.7369 12.4918 17.9919 12.2369 18.1517 11.9233C18.3333 11.5668 18.3333 11.1 18.3333 10.1666V3.83329C18.3333 2.89987 18.3333 2.43316 18.1517 2.07664C17.9919 1.76304 17.7369 1.50807 17.4233 1.34828C17.0668 1.16663 16.6001 1.16663 15.6667 1.16663L4.33332 1.16663C3.3999 1.16663 2.93319 1.16663 2.57667 1.34828C2.26307 1.50807 2.0081 1.76304 1.84831 2.07664C1.66666 2.43316 1.66666 2.89987 1.66666 3.83329ZM12.0833 6.99996C12.0833 8.15055 11.1506 9.08329 9.99999 9.08329C8.8494 9.08329 7.91666 8.15055 7.91666 6.99996C7.91666 5.84937 8.8494 4.91663 9.99999 4.91663C11.1506 4.91663 12.0833 5.84937 12.0833 6.99996Z" stroke="#1B1B1B" stroke-width="1.4" stroke-linecap="round" stroke-linejoin="round"/>
</svg>
