<svg width="74" height="45" viewBox="0 0 74 45" fill="none" xmlns="http://www.w3.org/2000/svg">
<path d="M1.5 43.3467C7.47823 43.3467 4.83919 27.6785 8.82468 27.6785C12.8102 27.6785 10.979 38.6994 14.9645 38.6994C18.95 38.6994 16.8495 33.7865 21.3736 33.7865C25.8976 33.7865 24.3358 30.2013 27.4057 30.2013C30.4756 30.2013 31.6066 22.1016 34.1379 22.1016C36.6692 22.1016 36.7231 30.2013 39.4698 30.2013C42.2166 30.2013 42.055 12.4085 45.0172 12.4085C47.9794 12.4085 46.8484 20.641 50.3491 20.641C53.8499 20.641 54.927 1.6532 57.3507 1.6532C59.7743 1.6532 61.39 15.5953 63.8675 15.5953C66.3449 15.5953 66.4526 1.6532 72 1.6532" stroke="#0096FF" stroke-width="2.27419" stroke-linecap="round"/>
</svg>
