<svg width="20" height="16" viewBox="0 0 20 16" fill="none" xmlns="http://www.w3.org/2000/svg">
<path d="M4.99996 7.16671V10.5M15 5.50004V8.83337M14.1666 1.33337C16.2072 1.33337 17.3109 1.64567 17.8601 1.88791C17.9332 1.92017 17.9698 1.9363 18.0753 2.03702C18.1386 2.09739 18.254 2.27454 18.2837 2.35678C18.3333 2.49399 18.3333 2.56899 18.3333 2.71899V11.676C18.3333 12.4333 18.3333 12.812 18.2197 13.0066C18.1042 13.2046 17.9928 13.2966 17.7766 13.3727C17.564 13.4475 17.1349 13.3651 16.2768 13.2002C15.6761 13.0848 14.9637 13 14.1666 13C11.6666 13 9.16663 14.6667 5.83329 14.6667C3.7927 14.6667 2.68901 14.3544 2.13986 14.1122C2.06673 14.0799 2.03016 14.0638 1.92463 13.9631C1.86136 13.9027 1.74589 13.7255 1.71618 13.6433C1.66663 13.5061 1.66663 13.4311 1.66663 13.2811L1.66663 4.32409C1.66663 3.56678 1.66663 3.18813 1.78019 2.99349C1.89571 2.79551 2.00712 2.70347 2.22334 2.62738C2.43591 2.55258 2.86499 2.63503 3.72315 2.79991C4.32381 2.91532 5.03619 3.00004 5.83329 3.00004C8.33329 3.00004 10.8333 1.33337 14.1666 1.33337ZM12.0833 8.00004C12.0833 9.15063 11.1506 10.0834 9.99996 10.0834C8.84937 10.0834 7.91663 9.15063 7.91663 8.00004C7.91663 6.84945 8.84937 5.91671 9.99996 5.91671C11.1506 5.91671 12.0833 6.84945 12.0833 8.00004Z" stroke="#1B1B1B" stroke-width="1.4" stroke-linecap="round" stroke-linejoin="round"/>
</svg>
