<svg width="28" height="28" viewBox="0 0 28 28" fill="none" xmlns="http://www.w3.org/2000/svg">
<path d="M18.6667 7.00004V6.06671C18.6667 4.75992 18.6667 4.10652 18.4123 3.6074C18.1886 3.16835 17.8317 2.8114 17.3926 2.58769C16.8935 2.33337 16.2401 2.33337 14.9333 2.33337H13.0667C11.7599 2.33337 11.1065 2.33337 10.6074 2.58769C10.1683 2.8114 9.81136 3.16835 9.58765 3.6074C9.33333 4.10652 9.33333 4.75992 9.33333 6.06671V7.00004M11.6667 13.4167V19.25M16.3333 13.4167V19.25M3.5 7.00004H24.5M22.1667 7.00004V20.0667C22.1667 22.0269 22.1667 23.007 21.7852 23.7557C21.4496 24.4142 20.9142 24.9497 20.2556 25.2852C19.5069 25.6667 18.5268 25.6667 16.5667 25.6667H11.4333C9.47315 25.6667 8.49306 25.6667 7.74437 25.2852C7.0858 24.9497 6.55037 24.4142 6.21481 23.7557C5.83333 23.007 5.83333 22.0269 5.83333 20.0667V7.00004" stroke="#FF1925" stroke-width="1.4" stroke-linecap="round" stroke-linejoin="round"/>
</svg>
