<svg width="56" height="57" viewBox="0 0 56 57" fill="none" xmlns="http://www.w3.org/2000/svg">
<g clip-path="url(#clip0_707_55200)">
<path d="M3.49023 43.9021L45.0107 49.6946L52.4824 9.37463L14.7865 4.28125L3.49023 43.9021Z" fill="#FFF200"/>
<path d="M3.49023 43.9023L6.60698 48.742L48.7295 55.49L45.0142 49.6948L3.49023 43.9023Z" fill="#E8D807"/>
<path d="M12.6033 2.375C12.6033 2.375 4.25234 41.1987 2.48484 42.3433C0.717345 43.4913 44.3991 48.7421 44.3991 48.7421C44.3991 48.7421 52.3905 10.2605 52.4797 9.37675C52.569 8.493 12.6033 2.37675 12.6033 2.37675" fill="#EDDC0A"/>
<path d="M13.5683 3.632C13.5683 3.632 3.7132 38.6582 1.94833 39.8045C0.189575 40.9525 44.6247 47.4835 44.6247 47.4835C44.6247 47.4835 52.0001 10.3835 52.085 9.49975C52.1751 8.616 13.5675 3.625 13.5675 3.625" fill="#AD9A28"/>
<path d="M52.4833 9.375L55.8722 12.6983L48.727 55.4901L45.0117 49.695L52.4833 9.375Z" fill="#DBBF33"/>
<path d="M12.6052 2.375C12.6052 2.375 1.81642 35.1665 0.052422 36.311C-1.71508 37.459 41.7855 47.8488 43.9949 45.698C46.2043 43.5473 52.3958 10.2614 52.4851 9.37763C52.5743 8.49388 12.6087 2.37763 12.6087 2.37763" fill="#E8D807"/>
<path d="M12.6058 2.375C12.6058 2.375 3.12163 31.2762 1.35588 32.4312C-0.411622 33.5792 34.5 47.385 38.1671 43.9909C39.7535 42.5235 43.4521 36.0896 45.9319 30.0486C50.1336 19.8146 52.4261 9.92362 52.4786 9.3785C52.5679 8.49475 12.6023 2.3785 12.6023 2.3785" fill="#FFF200"/>
</g>
<defs>
<clipPath id="clip0_707_55200">
<rect width="56" height="56" fill="white" transform="translate(0 0.5)"/>
</clipPath>
</defs>
</svg>
